<svg width="177" height="48" viewBox="0 0 177 48" fill="none" xmlns="http://www.w3.org/2000/svg">
<rect x="4.75" y="0.75" width="166.5" height="46.5" rx="23.25" stroke="white" stroke-width="1.5"/>
<path d="M37.98 19.955L36.225 24.8H39.795L38.04 19.955H37.98ZM34.71 29H33.18L37.23 18.26H38.79L42.84 29H41.31L40.275 26.09H35.76L34.71 29ZM47.7445 29.24C47.2045 29.24 46.7095 29.125 46.2595 28.895C45.8195 28.665 45.4795 28.36 45.2395 27.98H45.1795V29H43.8595V18.26H45.2395V21.65L45.1795 22.67H45.2395C45.4795 22.29 45.8195 21.985 46.2595 21.755C46.7095 21.525 47.2045 21.41 47.7445 21.41C48.7145 21.41 49.5345 21.79 50.2045 22.55C50.8945 23.32 51.2395 24.245 51.2395 25.325C51.2395 26.415 50.8945 27.34 50.2045 28.1C49.5345 28.86 48.7145 29.24 47.7445 29.24ZM47.5195 27.98C48.1795 27.98 48.7345 27.73 49.1845 27.23C49.6345 26.74 49.8595 26.105 49.8595 25.325C49.8595 24.555 49.6345 23.92 49.1845 23.42C48.7345 22.92 48.1795 22.67 47.5195 22.67C46.8495 22.67 46.2895 22.92 45.8395 23.42C45.3995 23.92 45.1795 24.555 45.1795 25.325C45.1795 26.105 45.3995 26.745 45.8395 27.245C46.2895 27.735 46.8495 27.98 47.5195 27.98ZM52.0821 25.325C52.0821 24.195 52.4371 23.26 53.1471 22.52C53.8671 21.78 54.7721 21.41 55.8621 21.41C56.9521 21.41 57.8521 21.78 58.5621 22.52C59.2821 23.26 59.6421 24.195 59.6421 25.325C59.6421 26.465 59.2821 27.4 58.5621 28.13C57.8521 28.87 56.9521 29.24 55.8621 29.24C54.7721 29.24 53.8671 28.87 53.1471 28.13C52.4371 27.39 52.0821 26.455 52.0821 25.325ZM53.4621 25.325C53.4621 26.115 53.6921 26.755 54.1521 27.245C54.6121 27.735 55.1821 27.98 55.8621 27.98C56.5421 27.98 57.1121 27.735 57.5721 27.245C58.0321 26.755 58.2621 26.115 58.2621 25.325C58.2621 24.545 58.0321 23.91 57.5721 23.42C57.1021 22.92 56.5321 22.67 55.8621 22.67C55.1921 22.67 54.6221 22.92 54.1521 23.42C53.6921 23.91 53.4621 24.545 53.4621 25.325ZM67.2724 29H65.9524V27.98H65.8924C65.6824 28.34 65.3574 28.64 64.9174 28.88C64.4874 29.12 64.0374 29.24 63.5674 29.24C62.6674 29.24 61.9724 28.985 61.4824 28.475C61.0024 27.955 60.7624 27.22 60.7624 26.27V21.65H62.1424V26.18C62.1724 27.38 62.7774 27.98 63.9574 27.98C64.5074 27.98 64.9674 27.76 65.3374 27.32C65.7074 26.87 65.8924 26.335 65.8924 25.715V21.65H67.2724V29ZM71.9355 29.12C71.3355 29.12 70.8355 28.935 70.4355 28.565C70.0455 28.195 69.8455 27.68 69.8355 27.02V22.91H68.5455V21.65H69.8355V19.4H71.2155V21.65H73.0155V22.91H71.2155V26.57C71.2155 27.06 71.3105 27.395 71.5005 27.575C71.6905 27.745 71.9055 27.83 72.1455 27.83C72.2555 27.83 72.3605 27.82 72.4605 27.8C72.5705 27.77 72.6705 27.735 72.7605 27.695L73.1955 28.925C72.8355 29.055 72.4155 29.12 71.9355 29.12ZM77.8642 29V18.26H81.1492C82.7892 18.26 84.1042 18.755 85.0942 19.745C86.0942 20.735 86.5942 22.03 86.5942 23.63C86.5942 25.24 86.0942 26.54 85.0942 27.53C84.1042 28.51 82.7892 29 81.1492 29H77.8642ZM79.2442 19.58V27.68H81.1492C82.3992 27.68 83.3842 27.325 84.1042 26.615C84.8242 25.895 85.1842 24.9 85.1842 23.63C85.1842 22.37 84.8242 21.38 84.1042 20.66C83.3842 19.94 82.3992 19.58 81.1492 19.58H79.2442ZM91.0755 29.24C89.9955 29.24 89.1055 28.87 88.4055 28.13C87.7055 27.39 87.3555 26.455 87.3555 25.325C87.3555 24.205 87.6955 23.275 88.3755 22.535C89.0555 21.785 89.9255 21.41 90.9855 21.41C92.0755 21.41 92.9405 21.765 93.5805 22.475C94.2305 23.175 94.5555 24.16 94.5555 25.43L94.5405 25.58H88.7655C88.7855 26.3 89.0255 26.88 89.4855 27.32C89.9455 27.76 90.4955 27.98 91.1355 27.98C92.0155 27.98 92.7055 27.54 93.2055 26.66L94.4355 27.26C94.1055 27.88 93.6455 28.365 93.0555 28.715C92.4755 29.065 91.8155 29.24 91.0755 29.24ZM88.8705 24.44H93.0855C93.0455 23.93 92.8355 23.51 92.4555 23.18C92.0855 22.84 91.5855 22.67 90.9555 22.67C90.4355 22.67 89.9855 22.83 89.6055 23.15C89.2355 23.47 88.9905 23.9 88.8705 24.44ZM99.2411 29H97.8611L94.8911 21.65H96.3911L98.5511 27.35H98.5811L100.771 21.65H102.241L99.2411 29ZM106.222 29.24C105.142 29.24 104.252 28.87 103.552 28.13C102.852 27.39 102.502 26.455 102.502 25.325C102.502 24.205 102.842 23.275 103.522 22.535C104.202 21.785 105.072 21.41 106.132 21.41C107.222 21.41 108.087 21.765 108.727 22.475C109.377 23.175 109.702 24.16 109.702 25.43L109.687 25.58H103.912C103.932 26.3 104.172 26.88 104.632 27.32C105.092 27.76 105.642 27.98 106.282 27.98C107.162 27.98 107.852 27.54 108.352 26.66L109.582 27.26C109.252 27.88 108.792 28.365 108.202 28.715C107.622 29.065 106.962 29.24 106.222 29.24ZM104.017 24.44H108.232C108.192 23.93 107.982 23.51 107.602 23.18C107.232 22.84 106.732 22.67 106.102 22.67C105.582 22.67 105.132 22.83 104.752 23.15C104.382 23.47 104.137 23.9 104.017 24.44ZM112.344 18.26V29H110.964V18.26H112.344ZM113.532 25.325C113.532 24.195 113.887 23.26 114.597 22.52C115.317 21.78 116.222 21.41 117.312 21.41C118.402 21.41 119.302 21.78 120.012 22.52C120.732 23.26 121.092 24.195 121.092 25.325C121.092 26.465 120.732 27.4 120.012 28.13C119.302 28.87 118.402 29.24 117.312 29.24C116.222 29.24 115.317 28.87 114.597 28.13C113.887 27.39 113.532 26.455 113.532 25.325ZM114.912 25.325C114.912 26.115 115.142 26.755 115.602 27.245C116.062 27.735 116.632 27.98 117.312 27.98C117.992 27.98 118.562 27.735 119.022 27.245C119.482 26.755 119.712 26.115 119.712 25.325C119.712 24.545 119.482 23.91 119.022 23.42C118.552 22.92 117.982 22.67 117.312 22.67C116.642 22.67 116.072 22.92 115.602 23.42C115.142 23.91 114.912 24.545 114.912 25.325ZM125.873 27.98C126.533 27.98 127.088 27.73 127.538 27.23C127.988 26.74 128.213 26.105 128.213 25.325C128.213 24.555 127.988 23.92 127.538 23.42C127.088 22.92 126.533 22.67 125.873 22.67C125.203 22.67 124.643 22.92 124.193 23.42C123.753 23.92 123.533 24.555 123.533 25.325C123.533 26.105 123.753 26.745 124.193 27.245C124.643 27.735 125.203 27.98 125.873 27.98ZM126.098 29.24C125.558 29.24 125.063 29.125 124.613 28.895C124.173 28.665 123.833 28.36 123.593 27.98H123.533L123.593 29V32.24H122.213V21.65H123.533V22.67H123.593C123.833 22.29 124.173 21.985 124.613 21.755C125.063 21.525 125.558 21.41 126.098 21.41C127.068 21.41 127.888 21.79 128.558 22.55C129.248 23.32 129.593 24.245 129.593 25.325C129.593 26.415 129.248 27.34 128.558 28.1C127.888 28.86 127.068 29.24 126.098 29.24ZM134.157 29.24C133.077 29.24 132.187 28.87 131.487 28.13C130.787 27.39 130.437 26.455 130.437 25.325C130.437 24.205 130.777 23.275 131.457 22.535C132.137 21.785 133.007 21.41 134.067 21.41C135.157 21.41 136.022 21.765 136.662 22.475C137.312 23.175 137.637 24.16 137.637 25.43L137.622 25.58H131.847C131.867 26.3 132.107 26.88 132.567 27.32C133.027 27.76 133.577 27.98 134.217 27.98C135.097 27.98 135.787 27.54 136.287 26.66L137.517 27.26C137.187 27.88 136.727 28.365 136.137 28.715C135.557 29.065 134.897 29.24 134.157 29.24ZM131.952 24.44H136.167C136.127 23.93 135.917 23.51 135.537 23.18C135.167 22.84 134.667 22.67 134.037 22.67C133.517 22.67 133.067 22.83 132.687 23.15C132.317 23.47 132.072 23.9 131.952 24.44ZM140.279 29H138.899V21.65H140.219V22.85H140.279C140.419 22.46 140.704 22.13 141.134 21.86C141.574 21.58 142.004 21.44 142.424 21.44C142.824 21.44 143.164 21.5 143.444 21.62L143.024 22.955C142.854 22.885 142.584 22.85 142.214 22.85C141.694 22.85 141.239 23.06 140.849 23.48C140.469 23.9 140.279 24.39 140.279 24.95V29Z" fill="white"/>
</svg>
