<svg width="139" height="48" viewBox="0 0 139 48" fill="none" xmlns="http://www.w3.org/2000/svg">
<rect x="0.75" y="0.75" width="137.25" height="46.5" rx="23.25" stroke="white" stroke-width="1.5"/>
<circle cx="36.75" cy="24" r="7.40278" stroke="url(#paint0_angular_90_8)" stroke-width="4.69444"/>
<path d="M70.65 18.26H72.09L69.225 29H67.815L65.505 21.92H65.445L63.135 29H61.725L58.74 18.26H60.18L62.445 26.705H62.505L64.83 19.7H66.12L68.445 26.705H68.505L70.65 18.26ZM75.6478 29.24C74.5678 29.24 73.6778 28.87 72.9778 28.13C72.2778 27.39 71.9278 26.455 71.9278 25.325C71.9278 24.205 72.2678 23.275 72.9478 22.535C73.6278 21.785 74.4978 21.41 75.5578 21.41C76.6478 21.41 77.5128 21.765 78.1528 22.475C78.8028 23.175 79.1278 24.16 79.1278 25.43L79.1128 25.58H73.3378C73.3578 26.3 73.5978 26.88 74.0578 27.32C74.5178 27.76 75.0678 27.98 75.7078 27.98C76.5878 27.98 77.2778 27.54 77.7778 26.66L79.0078 27.26C78.6778 27.88 78.2178 28.365 77.6278 28.715C77.0478 29.065 76.3878 29.24 75.6478 29.24ZM73.4428 24.44H77.6578C77.6178 23.93 77.4078 23.51 77.0278 23.18C76.6578 22.84 76.1578 22.67 75.5278 22.67C75.0078 22.67 74.5578 22.83 74.1778 23.15C73.8078 23.47 73.5628 23.9 73.4428 24.44ZM84.2748 29.24C83.7348 29.24 83.2398 29.125 82.7898 28.895C82.3498 28.665 82.0098 28.36 81.7698 27.98H81.7098V29H80.3898V18.26H81.7698V21.65L81.7098 22.67H81.7698C82.0098 22.29 82.3498 21.985 82.7898 21.755C83.2398 21.525 83.7348 21.41 84.2748 21.41C85.2448 21.41 86.0648 21.79 86.7348 22.55C87.4248 23.32 87.7698 24.245 87.7698 25.325C87.7698 26.415 87.4248 27.34 86.7348 28.1C86.0648 28.86 85.2448 29.24 84.2748 29.24ZM84.0498 27.98C84.7098 27.98 85.2648 27.73 85.7148 27.23C86.1648 26.74 86.3898 26.105 86.3898 25.325C86.3898 24.555 86.1648 23.92 85.7148 23.42C85.2648 22.92 84.7098 22.67 84.0498 22.67C83.3798 22.67 82.8198 22.92 82.3698 23.42C81.9298 23.92 81.7098 24.555 81.7098 25.325C81.7098 26.105 81.9298 26.745 82.3698 27.245C82.8198 27.735 83.3798 27.98 84.0498 27.98ZM94.5841 26.96C94.5841 27.6 94.3041 28.14 93.7441 28.58C93.1841 29.02 92.4791 29.24 91.6291 29.24C90.8891 29.24 90.2391 29.05 89.6791 28.67C89.1191 28.28 88.7191 27.77 88.4791 27.14L89.7091 26.615C89.8891 27.055 90.1491 27.4 90.4891 27.65C90.8391 27.89 91.2191 28.01 91.6291 28.01C92.0691 28.01 92.4341 27.915 92.7241 27.725C93.0241 27.535 93.1741 27.31 93.1741 27.05C93.1741 26.58 92.8141 26.235 92.0941 26.015L90.8341 25.7C89.4041 25.34 88.6891 24.65 88.6891 23.63C88.6891 22.96 88.9591 22.425 89.4991 22.025C90.0491 21.615 90.7491 21.41 91.5991 21.41C92.2491 21.41 92.8341 21.565 93.3541 21.875C93.8841 22.185 94.2541 22.6 94.4641 23.12L93.2341 23.63C93.0941 23.32 92.8641 23.08 92.5441 22.91C92.2341 22.73 91.8841 22.64 91.4941 22.64C91.1341 22.64 90.8091 22.73 90.5191 22.91C90.2391 23.09 90.0991 23.31 90.0991 23.57C90.0991 23.99 90.4941 24.29 91.2841 24.47L92.3941 24.755C93.8541 25.115 94.5841 25.85 94.5841 26.96ZM97.4971 19.115C97.4971 19.385 97.4021 19.615 97.2121 19.805C97.0221 19.995 96.7921 20.09 96.5221 20.09C96.2521 20.09 96.0221 19.995 95.8321 19.805C95.6421 19.615 95.5471 19.385 95.5471 19.115C95.5471 18.845 95.6421 18.615 95.8321 18.425C96.0221 18.235 96.2521 18.14 96.5221 18.14C96.7921 18.14 97.0221 18.235 97.2121 18.425C97.4021 18.615 97.4971 18.845 97.4971 19.115ZM97.2121 21.65V29H95.8321V21.65H97.2121ZM101.845 29.12C101.245 29.12 100.745 28.935 100.345 28.565C99.9547 28.195 99.7547 27.68 99.7447 27.02V22.91H98.4547V21.65H99.7447V19.4H101.125V21.65H102.925V22.91H101.125V26.57C101.125 27.06 101.22 27.395 101.41 27.575C101.6 27.745 101.815 27.83 102.055 27.83C102.165 27.83 102.27 27.82 102.37 27.8C102.48 27.77 102.58 27.735 102.67 27.695L103.105 28.925C102.745 29.055 102.325 29.12 101.845 29.12ZM107.464 29.24C106.384 29.24 105.494 28.87 104.794 28.13C104.094 27.39 103.744 26.455 103.744 25.325C103.744 24.205 104.084 23.275 104.764 22.535C105.444 21.785 106.314 21.41 107.374 21.41C108.464 21.41 109.329 21.765 109.969 22.475C110.619 23.175 110.944 24.16 110.944 25.43L110.929 25.58H105.154C105.174 26.3 105.414 26.88 105.874 27.32C106.334 27.76 106.884 27.98 107.524 27.98C108.404 27.98 109.094 27.54 109.594 26.66L110.824 27.26C110.494 27.88 110.034 28.365 109.444 28.715C108.864 29.065 108.204 29.24 107.464 29.24ZM105.259 24.44H109.474C109.434 23.93 109.224 23.51 108.844 23.18C108.474 22.84 107.974 22.67 107.344 22.67C106.824 22.67 106.374 22.83 105.994 23.15C105.624 23.47 105.379 23.9 105.259 24.44Z" fill="white"/>
<defs>
<radialGradient id="paint0_angular_90_8" cx="0" cy="0" r="1" gradientUnits="userSpaceOnUse" gradientTransform="translate(36.75 24) rotate(90) scale(9.75)">
<stop stop-color="#FF0000"/>
<stop offset="0.171875" stop-color="#FFFF00"/>
<stop offset="0.338542" stop-color="#00FF00"/>
<stop offset="0.505208" stop-color="#00FFFF"/>
<stop offset="0.671875" stop-color="#0000FF"/>
<stop offset="0.838542" stop-color="#FF00FF"/>
<stop offset="1" stop-color="#FF0000"/>
</radialGradient>
</defs>
</svg>
