<svg width="185" height="64" viewBox="0 0 185 64" fill="none" xmlns="http://www.w3.org/2000/svg">
<rect x="1" y="1" width="183" height="62" rx="31" stroke="white" stroke-width="2"/>
<circle cx="49" cy="32" r="9.87037" stroke="url(#paint0_angular_90_8)" stroke-width="6.25926"/>
<path d="M94.2 24.68H96.12L92.3 39H90.42L87.34 29.56H87.26L84.18 39H82.3L78.32 24.68H80.24L83.26 35.94H83.34L86.44 26.6H88.16L91.26 35.94H91.34L94.2 24.68ZM100.864 39.32C99.4238 39.32 98.2371 38.8267 97.3038 37.84C96.3704 36.8533 95.9038 35.6067 95.9038 34.1C95.9038 32.6067 96.3571 31.3667 97.2638 30.38C98.1704 29.38 99.3304 28.88 100.744 28.88C102.197 28.88 103.35 29.3533 104.204 30.3C105.07 31.2333 105.504 32.5467 105.504 34.24L105.484 34.44H97.7838C97.8104 35.4 98.1304 36.1733 98.7438 36.76C99.3571 37.3467 100.09 37.64 100.944 37.64C102.117 37.64 103.037 37.0533 103.704 35.88L105.344 36.68C104.904 37.5067 104.29 38.1533 103.504 38.62C102.73 39.0867 101.85 39.32 100.864 39.32ZM97.9238 32.92H103.544C103.49 32.24 103.21 31.68 102.704 31.24C102.21 30.7867 101.544 30.56 100.704 30.56C100.01 30.56 99.4104 30.7733 98.9038 31.2C98.4104 31.6267 98.0838 32.2 97.9238 32.92ZM112.366 39.32C111.646 39.32 110.986 39.1667 110.386 38.86C109.8 38.5533 109.346 38.1467 109.026 37.64H108.946V39H107.186V24.68H109.026V29.2L108.946 30.56H109.026C109.346 30.0533 109.8 29.6467 110.386 29.34C110.986 29.0333 111.646 28.88 112.366 28.88C113.66 28.88 114.753 29.3867 115.646 30.4C116.566 31.4267 117.026 32.66 117.026 34.1C117.026 35.5533 116.566 36.7867 115.646 37.8C114.753 38.8133 113.66 39.32 112.366 39.32ZM112.066 37.64C112.946 37.64 113.686 37.3067 114.286 36.64C114.886 35.9867 115.186 35.14 115.186 34.1C115.186 33.0733 114.886 32.2267 114.286 31.56C113.686 30.8933 112.946 30.56 112.066 30.56C111.173 30.56 110.426 30.8933 109.826 31.56C109.24 32.2267 108.946 33.0733 108.946 34.1C108.946 35.14 109.24 35.9933 109.826 36.66C110.426 37.3133 111.173 37.64 112.066 37.64ZM126.112 36.28C126.112 37.1333 125.739 37.8533 124.992 38.44C124.246 39.0267 123.306 39.32 122.172 39.32C121.186 39.32 120.319 39.0667 119.572 38.56C118.826 38.04 118.292 37.36 117.972 36.52L119.612 35.82C119.852 36.4067 120.199 36.8667 120.652 37.2C121.119 37.52 121.626 37.68 122.172 37.68C122.759 37.68 123.246 37.5533 123.632 37.3C124.032 37.0467 124.232 36.7467 124.232 36.4C124.232 35.7733 123.752 35.3133 122.792 35.02L121.112 34.6C119.206 34.12 118.252 33.2 118.252 31.84C118.252 30.9467 118.612 30.2333 119.332 29.7C120.066 29.1533 120.999 28.88 122.132 28.88C122.999 28.88 123.779 29.0867 124.472 29.5C125.179 29.9133 125.672 30.4667 125.952 31.16L124.312 31.84C124.126 31.4267 123.819 31.1067 123.392 30.88C122.979 30.64 122.512 30.52 121.992 30.52C121.512 30.52 121.079 30.64 120.692 30.88C120.319 31.12 120.132 31.4133 120.132 31.76C120.132 32.32 120.659 32.72 121.712 32.96L123.192 33.34C125.139 33.82 126.112 34.8 126.112 36.28ZM129.996 25.82C129.996 26.18 129.869 26.4867 129.616 26.74C129.363 26.9933 129.056 27.12 128.696 27.12C128.336 27.12 128.029 26.9933 127.776 26.74C127.523 26.4867 127.396 26.18 127.396 25.82C127.396 25.46 127.523 25.1533 127.776 24.9C128.029 24.6467 128.336 24.52 128.696 24.52C129.056 24.52 129.363 24.6467 129.616 24.9C129.869 25.1533 129.996 25.46 129.996 25.82ZM129.616 29.2V39H127.776V29.2H129.616ZM135.793 39.16C134.993 39.16 134.326 38.9133 133.793 38.42C133.273 37.9267 133.006 37.24 132.993 36.36V30.88H131.273V29.2H132.993V26.2H134.833V29.2H137.233V30.88H134.833V35.76C134.833 36.4133 134.96 36.86 135.213 37.1C135.466 37.3267 135.753 37.44 136.073 37.44C136.22 37.44 136.36 37.4267 136.493 37.4C136.64 37.36 136.773 37.3133 136.893 37.26L137.473 38.9C136.993 39.0733 136.433 39.16 135.793 39.16ZM143.286 39.32C141.846 39.32 140.659 38.8267 139.726 37.84C138.792 36.8533 138.326 35.6067 138.326 34.1C138.326 32.6067 138.779 31.3667 139.686 30.38C140.592 29.38 141.752 28.88 143.166 28.88C144.619 28.88 145.772 29.3533 146.626 30.3C147.492 31.2333 147.926 32.5467 147.926 34.24L147.906 34.44H140.206C140.232 35.4 140.552 36.1733 141.166 36.76C141.779 37.3467 142.512 37.64 143.366 37.64C144.539 37.64 145.459 37.0533 146.126 35.88L147.766 36.68C147.326 37.5067 146.712 38.1533 145.926 38.62C145.152 39.0867 144.272 39.32 143.286 39.32ZM140.346 32.92H145.966C145.912 32.24 145.632 31.68 145.126 31.24C144.632 30.7867 143.966 30.56 143.126 30.56C142.432 30.56 141.832 30.7733 141.326 31.2C140.832 31.6267 140.506 32.2 140.346 32.92Z" fill="white"/>
<defs>
<radialGradient id="paint0_angular_90_8" cx="0" cy="0" r="1" gradientUnits="userSpaceOnUse" gradientTransform="translate(49 32) rotate(90) scale(13)">
<stop stop-color="#FF0000"/>
<stop offset="0.171875" stop-color="#FFFF00"/>
<stop offset="0.338542" stop-color="#00FF00"/>
<stop offset="0.505208" stop-color="#00FFFF"/>
<stop offset="0.671875" stop-color="#0000FF"/>
<stop offset="0.838542" stop-color="#FF00FF"/>
<stop offset="1" stop-color="#FF0000"/>
</radialGradient>
</defs>
</svg>
