<svg width="115" height="48" viewBox="0 0 115 48" fill="none" xmlns="http://www.w3.org/2000/svg">
<rect x="4.75" y="0.75" width="105.5" height="46.5" rx="23.25" stroke="white" stroke-width="1.5"/>
<path d="M43.15 18.26H44.59L41.725 29H40.315L38.005 21.92H37.945L35.635 29H34.225L31.24 18.26H32.68L34.945 26.705H35.005L37.33 19.7H38.62L40.945 26.705H41.005L43.15 18.26ZM48.1478 29.24C47.0678 29.24 46.1778 28.87 45.4778 28.13C44.7778 27.39 44.4278 26.455 44.4278 25.325C44.4278 24.205 44.7678 23.275 45.4478 22.535C46.1278 21.785 46.9978 21.41 48.0578 21.41C49.1478 21.41 50.0128 21.765 50.6528 22.475C51.3028 23.175 51.6278 24.16 51.6278 25.43L51.6128 25.58H45.8378C45.8578 26.3 46.0978 26.88 46.5578 27.32C47.0178 27.76 47.5678 27.98 48.2078 27.98C49.0878 27.98 49.7778 27.54 50.2778 26.66L51.5078 27.26C51.1778 27.88 50.7178 28.365 50.1278 28.715C49.5478 29.065 48.8878 29.24 48.1478 29.24ZM45.9428 24.44H50.1578C50.1178 23.93 49.9078 23.51 49.5278 23.18C49.1578 22.84 48.6578 22.67 48.0278 22.67C47.5078 22.67 47.0578 22.83 46.6778 23.15C46.3078 23.47 46.0628 23.9 45.9428 24.44ZM56.7748 29.24C56.2348 29.24 55.7398 29.125 55.2898 28.895C54.8498 28.665 54.5098 28.36 54.2698 27.98H54.2098V29H52.8898V18.26H54.2698V21.65L54.2098 22.67H54.2698C54.5098 22.29 54.8498 21.985 55.2898 21.755C55.7398 21.525 56.2348 21.41 56.7748 21.41C57.7448 21.41 58.5648 21.79 59.2348 22.55C59.9248 23.32 60.2698 24.245 60.2698 25.325C60.2698 26.415 59.9248 27.34 59.2348 28.1C58.5648 28.86 57.7448 29.24 56.7748 29.24ZM56.5498 27.98C57.2098 27.98 57.7648 27.73 58.2148 27.23C58.6648 26.74 58.8898 26.105 58.8898 25.325C58.8898 24.555 58.6648 23.92 58.2148 23.42C57.7648 22.92 57.2098 22.67 56.5498 22.67C55.8798 22.67 55.3198 22.92 54.8698 23.42C54.4298 23.92 54.2098 24.555 54.2098 25.325C54.2098 26.105 54.4298 26.745 54.8698 27.245C55.3198 27.735 55.8798 27.98 56.5498 27.98ZM67.0841 26.96C67.0841 27.6 66.8041 28.14 66.2441 28.58C65.6841 29.02 64.9791 29.24 64.1291 29.24C63.3891 29.24 62.7391 29.05 62.1791 28.67C61.6191 28.28 61.2191 27.77 60.9791 27.14L62.2091 26.615C62.3891 27.055 62.6491 27.4 62.9891 27.65C63.3391 27.89 63.7191 28.01 64.1291 28.01C64.5691 28.01 64.9341 27.915 65.2241 27.725C65.5241 27.535 65.6741 27.31 65.6741 27.05C65.6741 26.58 65.3141 26.235 64.5941 26.015L63.3341 25.7C61.9041 25.34 61.1891 24.65 61.1891 23.63C61.1891 22.96 61.4591 22.425 61.9991 22.025C62.5491 21.615 63.2491 21.41 64.0991 21.41C64.7491 21.41 65.3341 21.565 65.8541 21.875C66.3841 22.185 66.7541 22.6 66.9641 23.12L65.7341 23.63C65.5941 23.32 65.3641 23.08 65.0441 22.91C64.7341 22.73 64.3841 22.64 63.9941 22.64C63.6341 22.64 63.3091 22.73 63.0191 22.91C62.7391 23.09 62.5991 23.31 62.5991 23.57C62.5991 23.99 62.9941 24.29 63.7841 24.47L64.8941 24.755C66.3541 25.115 67.0841 25.85 67.0841 26.96ZM69.9971 19.115C69.9971 19.385 69.9021 19.615 69.7121 19.805C69.5221 19.995 69.2921 20.09 69.0221 20.09C68.7521 20.09 68.5221 19.995 68.3321 19.805C68.1421 19.615 68.0471 19.385 68.0471 19.115C68.0471 18.845 68.1421 18.615 68.3321 18.425C68.5221 18.235 68.7521 18.14 69.0221 18.14C69.2921 18.14 69.5221 18.235 69.7121 18.425C69.9021 18.615 69.9971 18.845 69.9971 19.115ZM69.7121 21.65V29H68.3321V21.65H69.7121ZM74.3447 29.12C73.7447 29.12 73.2447 28.935 72.8447 28.565C72.4547 28.195 72.2547 27.68 72.2447 27.02V22.91H70.9547V21.65H72.2447V19.4H73.6247V21.65H75.4247V22.91H73.6247V26.57C73.6247 27.06 73.7197 27.395 73.9097 27.575C74.0997 27.745 74.3147 27.83 74.5547 27.83C74.6647 27.83 74.7697 27.82 74.8697 27.8C74.9797 27.77 75.0797 27.735 75.1697 27.695L75.6047 28.925C75.2447 29.055 74.8247 29.12 74.3447 29.12ZM79.9642 29.24C78.8842 29.24 77.9942 28.87 77.2942 28.13C76.5942 27.39 76.2442 26.455 76.2442 25.325C76.2442 24.205 76.5842 23.275 77.2642 22.535C77.9442 21.785 78.8142 21.41 79.8742 21.41C80.9642 21.41 81.8292 21.765 82.4692 22.475C83.1192 23.175 83.4442 24.16 83.4442 25.43L83.4292 25.58H77.6542C77.6742 26.3 77.9142 26.88 78.3742 27.32C78.8342 27.76 79.3842 27.98 80.0242 27.98C80.9042 27.98 81.5942 27.54 82.0942 26.66L83.3242 27.26C82.9942 27.88 82.5342 28.365 81.9442 28.715C81.3642 29.065 80.7042 29.24 79.9642 29.24ZM77.7592 24.44H81.9742C81.9342 23.93 81.7242 23.51 81.3442 23.18C80.9742 22.84 80.4742 22.67 79.8442 22.67C79.3242 22.67 78.8742 22.83 78.4942 23.15C78.1242 23.47 77.8792 23.9 77.7592 24.44Z" fill="white"/>
</svg>
